<svg width="600" height="450" viewBox="0 0 800 600" fill="none" xmlns="http://www.w3.org/2000/svg" data-reactroot="">
<path d="M298.835 176.155C298.835 176.155 279.465 216.241 273.844 208.115C270.218 202.875 272.184 192.722 272.184 192.722C272.184 192.722 246.623 224.415 240.507 218.662C234.391 212.91 229.531 185.341 237.307 177.865C244.93 170.536 270.796 146.973 279.311 150.925C287.826 154.877 298.835 176.155 298.835 176.155Z" fill="#F2DEB8"></path>
<path fill-rule="evenodd" clip-rule="evenodd" d="M246.669 182.704C246.91 183.005 246.861 183.445 246.56 183.686L246.123 183.14L245.687 182.595C245.988 182.354 246.428 182.403 246.669 182.704ZM232.907 194.589C232.517 194.898 232.229 195.125 232.162 195.17C231.841 195.384 231.407 195.297 231.194 194.976C230.98 194.655 231.066 194.221 231.387 194.007C231.382 194.011 231.389 194.006 231.411 193.989C231.436 193.969 231.481 193.934 231.553 193.878C231.67 193.786 231.835 193.657 232.04 193.494C232.452 193.168 233.024 192.713 233.703 192.172C235.061 191.09 236.846 189.666 238.621 188.247C240.397 186.828 242.163 185.415 243.486 184.357L245.687 182.595L246.123 183.14L246.56 183.686L244.358 185.447C243.036 186.506 241.269 187.919 239.493 189.338C237.718 190.757 235.933 192.182 234.573 193.265C233.894 193.806 233.32 194.262 232.907 194.589Z" fill="#2249B3"></path>
<path fill-rule="evenodd" clip-rule="evenodd" d="M248.313 189.674C248.614 189.433 249.054 189.483 249.294 189.784C249.535 190.085 249.486 190.525 249.185 190.765L248.753 190.226C249.185 190.766 249.185 190.765 249.185 190.765L246.448 192.951C244.805 194.263 242.61 196.015 240.407 197.773C238.203 199.531 235.991 201.295 234.311 202.631C233.471 203.3 232.764 203.861 232.258 204.262C232.005 204.463 231.801 204.623 231.656 204.737C231.53 204.836 231.413 204.928 231.365 204.959C231.044 205.173 230.611 205.087 230.397 204.766C230.183 204.445 230.269 204.011 230.59 203.797C230.585 203.801 230.594 203.793 230.624 203.771C230.655 203.746 230.71 203.704 230.794 203.638C230.936 203.526 231.138 203.367 231.391 203.167C231.896 202.767 232.602 202.206 233.441 201.538C235.12 200.202 237.332 198.439 239.536 196.681C241.739 194.923 243.933 193.172 245.577 191.859L248.313 189.674C248.313 189.674 248.313 189.674 248.745 190.215L248.313 189.674Z" fill="#2249B3"></path>
<path fill-rule="evenodd" clip-rule="evenodd" d="M250.938 196.754C251.239 196.513 251.679 196.563 251.919 196.864C252.16 197.165 252.111 197.605 251.81 197.846L251.374 197.3C251.81 197.846 251.81 197.845 251.81 197.846L249.073 200.031C247.43 201.343 245.235 203.095 243.032 204.853C240.828 206.611 238.616 208.375 236.936 209.711C236.096 210.38 235.389 210.941 234.883 211.342C234.63 211.543 234.426 211.703 234.281 211.817C234.155 211.916 234.038 212.008 233.99 212.039C233.669 212.253 233.236 212.167 233.022 211.846C232.808 211.525 232.894 211.091 233.215 210.877C233.21 210.881 233.219 210.873 233.249 210.851C233.28 210.826 233.335 210.784 233.419 210.718C233.561 210.606 233.763 210.447 234.016 210.247C234.521 209.847 235.227 209.286 236.066 208.618C237.745 207.282 239.957 205.519 242.161 203.761C244.364 202.003 246.558 200.252 248.202 198.939L250.938 196.754C250.938 196.754 250.938 196.754 251.323 197.237L250.938 196.754Z" fill="#2249B3"></path>
<path d="M527.563 79.2867C527.067 83.084 525.119 92.9524 522.375 94.8304C519.63 96.7084 519.297 93.6018 517.193 93.82" fill="#414042"></path>
<path d="M470.284 66.6547C464.128 78.1882 450.769 92.0153 444.387 104.92C438.004 117.826 456.874 135.918 476.832 132.322C484.04 131.024 488.901 117.786 491.864 109.576" fill="#F2DEB8"></path>
<path fill-rule="evenodd" clip-rule="evenodd" d="M470.615 66.0385C470.955 66.2201 471.084 66.6432 470.902 66.9835C468.009 72.4043 463.549 78.3144 459.003 84.3386C458.662 84.7896 458.321 85.2413 457.981 85.6935C453.067 92.2136 448.173 98.8456 445.015 105.23L444.389 104.92L445.015 105.23C442.028 111.27 444.889 118.693 451.198 124.286C457.474 129.851 466.97 133.39 476.711 131.635C478.32 131.345 479.851 130.378 481.308 128.887C482.763 127.397 484.104 125.423 485.331 123.203C487.787 118.761 489.725 113.451 491.209 109.339C491.34 108.976 491.74 108.788 492.103 108.919C492.466 109.05 492.654 109.45 492.523 109.813C491.045 113.911 489.071 119.325 486.554 123.879C485.294 126.157 483.883 128.249 482.307 129.863C480.733 131.475 478.954 132.65 476.959 133.009C466.741 134.85 456.823 131.141 450.271 125.332C443.751 119.552 440.368 111.476 443.763 104.611C446.988 98.0901 451.964 91.356 456.865 84.8528C457.199 84.4093 457.533 83.9668 457.866 83.5256C462.436 77.4696 466.831 71.6451 469.67 66.3258C469.852 65.9855 470.275 65.8568 470.615 66.0385Z" fill="#414042"></path>
<path d="M489.478 108.436C492.177 109.529 499.068 113.927 502.605 112.47C513.731 107.889 526.022 84.6044 530.96 72.9877C533.03 68.1165 532.892 65.2929 534.608 60.8358L500.823 43.8421L484.563 38.9609L476.237 38.3187L477.647 50.9787L473.679 53.8039L471.739 59.2339L470.602 64.2806" fill="#F2DEB8"></path>
<path fill-rule="evenodd" clip-rule="evenodd" d="M475.448 37.5575L484.691 38.2703L501.081 43.1907L535.487 60.4962L535.259 61.0868C534.488 63.0895 534.101 64.75 533.7 66.469C533.666 66.6174 533.631 66.7663 533.596 66.9159C533.154 68.8003 532.661 70.7699 531.602 73.2609C529.121 79.0981 524.796 87.8605 519.689 95.7468C517.135 99.6902 514.377 103.429 511.546 106.477C508.724 109.517 505.787 111.915 502.87 113.116C501.805 113.554 500.555 113.53 499.311 113.294C498.056 113.057 496.727 112.588 495.456 112.053C494.181 111.516 492.938 110.9 491.856 110.356C491.74 110.298 491.627 110.241 491.515 110.185C490.571 109.709 489.789 109.316 489.216 109.084C488.858 108.939 488.685 108.532 488.83 108.174C488.975 107.817 489.382 107.644 489.74 107.789C490.37 108.044 491.209 108.467 492.135 108.933C492.25 108.991 492.366 109.049 492.483 109.108C493.564 109.651 494.77 110.248 495.998 110.765C497.228 111.284 498.454 111.71 499.571 111.922C500.697 112.135 501.635 112.114 502.338 111.824C504.984 110.735 507.757 108.505 510.523 105.527C513.28 102.558 515.989 98.8901 518.516 94.9876C523.571 87.1822 527.86 78.494 530.316 72.7145C531.328 70.3343 531.8 68.4566 532.236 66.5971C532.271 66.4462 532.307 66.2953 532.342 66.1441C532.703 64.5937 533.07 63.0162 533.734 61.1783L500.563 44.4935L484.434 39.6514L477.024 39.08L478.386 51.3094L474.263 54.2455L472.41 59.4289L471.282 64.4342C471.197 64.8105 470.824 65.0468 470.447 64.962C470.071 64.8772 469.835 64.5034 469.92 64.1271L471.066 59.0389L473.095 53.3622L476.907 50.6479L475.448 37.5575Z" fill="#414042"></path>
<path d="M501.985 99.7631C502.016 100.117 502.305 100.375 502.662 100.351C503.018 100.326 503.258 100.03 503.227 99.6767C503.196 99.3229 502.908 99.0635 502.551 99.0889C502.193 99.1143 501.954 99.4091 501.985 99.7631Z" fill="#231F20"></path>
<path d="M502.598 99.0873C502.582 99.0873 502.566 99.0873 502.551 99.0887C502.193 99.1145 501.954 99.4091 501.985 99.7633C502.015 100.101 502.281 100.353 502.616 100.353C502.631 100.353 502.646 100.352 502.662 100.351C503.018 100.326 503.258 100.031 503.227 99.6766C503.197 99.3386 502.933 99.0873 502.598 99.0873Z" fill="#414042"></path>
<path d="M505.821 102.972C505.853 103.327 506.146 103.58 506.502 103.555C506.858 103.53 507.1 103.234 507.067 102.88C507.034 102.526 506.743 102.271 506.387 102.298C506.03 102.324 505.789 102.618 505.821 102.972Z" fill="#231F20"></path>
<path d="M506.438 102.291C506.421 102.291 506.404 102.292 506.387 102.294C506.03 102.32 505.789 102.613 505.821 102.968C505.852 103.307 506.12 103.552 506.454 103.552C506.47 103.552 506.486 103.552 506.502 103.551C506.858 103.526 507.1 103.23 507.067 102.876C507.036 102.54 506.771 102.291 506.438 102.291Z" fill="#414042"></path>
<path d="M508.776 104.66C508.808 105.014 509.101 105.268 509.457 105.242C509.813 105.217 510.056 104.921 510.022 104.568C509.989 104.214 509.699 103.958 509.342 103.985C508.985 104.012 508.744 104.305 508.776 104.66Z" fill="#231F20"></path>
<path d="M509.392 103.983C509.376 103.983 509.359 103.984 509.342 103.985C508.985 104.012 508.744 104.305 508.776 104.66C508.807 104.998 509.074 105.244 509.408 105.244C509.424 105.244 509.441 105.244 509.457 105.242C509.813 105.217 510.056 104.922 510.022 104.568C509.991 104.231 509.726 103.983 509.392 103.983Z" fill="#414042"></path>
<path d="M503.288 107.778C503.32 108.132 503.613 108.386 503.969 108.361C504.325 108.335 504.567 108.04 504.534 107.686C504.501 107.332 504.21 107.076 503.853 107.103C503.497 107.13 503.256 107.423 503.288 107.778Z" fill="#231F20"></path>
<path d="M503.904 107.095C503.887 107.095 503.87 107.096 503.853 107.097C503.497 107.124 503.256 107.418 503.288 107.772C503.319 108.11 503.586 108.356 503.919 108.356C503.936 108.356 503.952 108.356 503.969 108.354C504.325 108.329 504.567 108.034 504.534 107.68C504.503 107.343 504.237 107.095 503.904 107.095Z" fill="#414042"></path>
<path d="M516.024 89.5948C516.057 89.9492 516.352 90.2005 516.707 90.1756C517.062 90.1508 517.307 89.859 517.274 89.5045C517.242 89.1499 516.947 88.8983 516.591 88.924C516.236 88.9498 515.992 89.2405 516.024 89.5948Z" fill="#231F20"></path>
<path d="M516.641 88.9259C516.625 88.9259 516.608 88.9259 516.591 88.9274C516.236 88.9531 515.992 89.2433 516.024 89.5975C516.055 89.9363 516.325 90.1803 516.659 90.1803C516.675 90.1803 516.691 90.1803 516.707 90.1788C517.062 90.1538 517.307 89.8621 517.274 89.5072C517.243 89.1699 516.974 88.9259 516.641 88.9259Z" fill="#414042"></path>
<path d="M502.032 93.428C502.065 93.7829 502.361 94.0344 502.716 94.0094C503.071 93.9842 503.318 93.6932 503.284 93.3383C503.251 92.9835 502.956 92.7312 502.6 92.7574C502.244 92.7839 502 93.0735 502.032 93.428Z" fill="#231F20"></path>
<path d="M502.651 92.7598C502.634 92.7598 502.617 92.7605 502.6 92.762C502.244 92.7884 502 93.0779 502.032 93.4321C502.063 93.7709 502.335 94.0156 502.668 94.0156C502.684 94.0156 502.7 94.0156 502.716 94.0141C503.071 93.9884 503.318 93.6974 503.284 93.3425C503.252 93.0052 502.984 92.7598 502.651 92.7598Z" fill="#414042"></path>
<path d="M513.454 94.0655C513.486 94.4201 513.778 94.6764 514.135 94.6479C514.491 94.6198 514.732 94.3213 514.699 93.9663C514.666 93.6115 514.377 93.3558 514.019 93.385C513.661 93.414 513.422 93.7108 513.454 94.0655Z" fill="#231F20"></path>
<path d="M514.074 93.3828C514.056 93.3828 514.038 93.3835 514.019 93.385C513.661 93.4137 513.422 93.7105 513.454 94.0655C513.485 94.4013 513.748 94.6497 514.08 94.6497C514.098 94.6497 514.116 94.6489 514.135 94.6475C514.491 94.6195 514.732 94.3212 514.699 93.9663C514.668 93.6297 514.406 93.3828 514.074 93.3828Z" fill="#414042"></path>
<path d="M507.907 90.2322C507.94 90.5857 508.233 90.8397 508.588 90.8121C508.944 90.7846 509.186 90.489 509.152 90.1348C509.118 89.7809 508.827 89.5269 508.471 89.5548C508.114 89.5827 507.874 89.8784 507.907 90.2322Z" fill="#231F20"></path>
<path d="M508.524 89.5527C508.506 89.5527 508.489 89.5535 508.471 89.5549C508.114 89.5829 507.874 89.8783 507.907 90.2325C507.939 90.5683 508.205 90.8144 508.536 90.8144C508.554 90.8144 508.571 90.8137 508.588 90.8122C508.944 90.785 509.186 90.4889 509.152 90.1347C509.12 89.7989 508.856 89.5527 508.524 89.5527Z" fill="#414042"></path>
<path d="M507.274 95.332C507.306 95.6869 507.601 95.942 507.957 95.9176C508.312 95.8936 508.557 95.6009 508.524 95.2456C508.49 94.8903 508.199 94.6355 507.842 94.6602C507.484 94.6853 507.243 94.9772 507.274 95.332Z" fill="#231F20"></path>
<path d="M507.89 94.6522C507.874 94.6522 507.858 94.6522 507.842 94.6537C507.484 94.6787 507.243 94.9704 507.274 95.3253C507.305 95.6648 507.575 95.9125 507.91 95.9125C507.925 95.9125 507.941 95.9117 507.957 95.911C508.312 95.8867 508.557 95.5943 508.524 95.2386C508.492 94.8999 508.225 94.6522 507.89 94.6522Z" fill="#414042"></path>
<path d="M510.239 98.5628C510.271 98.9179 510.562 99.1734 510.919 99.1452C511.277 99.1169 511.517 98.8185 511.484 98.4635C511.451 98.1089 511.162 97.8527 510.804 97.8815C510.446 97.9103 510.207 98.2073 510.239 98.5628Z" fill="#231F20"></path>
<path d="M510.858 97.8838C510.84 97.8838 510.822 97.8845 510.804 97.886C510.446 97.9154 510.207 98.2123 510.239 98.5679C510.27 98.9045 510.533 99.1521 510.865 99.1521C510.883 99.1521 510.901 99.1514 510.919 99.1499C511.277 99.122 511.517 98.8236 511.484 98.4687C511.453 98.1322 511.191 97.8838 510.858 97.8838Z" fill="#414042"></path>
<path d="M511.685 101.196C511.717 101.551 512.007 101.807 512.365 101.779C512.722 101.75 512.962 101.452 512.93 101.097C512.897 100.742 512.607 100.486 512.249 100.515C511.891 100.544 511.652 100.841 511.685 101.196Z" fill="#231F20"></path>
<path d="M512.304 100.513C512.286 100.513 512.268 100.514 512.249 100.515C511.891 100.544 511.652 100.841 511.685 101.196C511.715 101.533 511.979 101.781 512.312 101.781C512.329 101.781 512.347 101.78 512.365 101.779C512.722 101.75 512.962 101.452 512.93 101.097C512.899 100.761 512.636 100.513 512.304 100.513Z" fill="#414042"></path>
<path d="M499.747 105.286C499.779 105.641 500.075 105.89 500.429 105.864C500.783 105.838 501.03 105.548 500.997 105.194C500.964 104.839 500.67 104.589 500.315 104.616C499.959 104.643 499.715 104.931 499.747 105.286Z" fill="#231F20"></path>
<path d="M500.366 104.614C500.349 104.614 500.332 104.614 500.315 104.616C499.959 104.643 499.715 104.931 499.747 105.286C499.777 105.624 500.047 105.866 500.379 105.866C500.396 105.866 500.412 105.866 500.429 105.864C500.783 105.838 501.03 105.548 500.997 105.194C500.966 104.857 500.698 104.614 500.366 104.614Z" fill="#414042"></path>
<path d="M558.259 51.9941C553.053 57.6007 553.149 55.2674 548.887 59.2693C548.119 65.2011 546.216 69.8822 539.815 69.5888C536.662 69.7665 533.967 69.4047 530.812 69.5888C528.515 72.2014 524.233 76.6675 521.835 79.0413C520.717 80.1486 519.408 77.233 519.349 76.0873C519.14 71.9929 519.229 61.4788 519.229 59.0146C519.228 56.5503 519.207 58.3197 519.174 58.2093C518.215 54.9931 510.49 52.2951 508.735 51.6954C500.148 48.7612 490.025 46.489 483.949 40.4309C483.41 39.8925 483.669 39.788 483.492 39.6674C482.185 38.7726 481.298 37.3536 479.669 39.4906C478.04 41.6276 475.766 46.4418 474.003 49.0911C473.943 50.8426 464.778 62.379 464.889 61.7506C464.711 55.767 474.742 15.992 479.874 16.7949C485.006 17.5973 489.89 20.9673 491.069 18.7416C496.42 8.64396 504.022 8.80596 513.473 11.7467C514.741 12.1413 516.95 13.3164 518.747 13.8232C530.37 17.1008 546.393 21.6324 557.817 15.4251C556.247 20.2642 554.653 25.1038 553.082 29.9318C560.923 29.729 566.545 25.0968 572.133 20.4122C569.897 29.5482 563.465 46.3879 558.259 51.9941Z" fill="#414042"></path>
<path d="M516.397 82.8751C516.597 84.0944 512.885 85.589 511.777 85.4048C503.541 84.0359 507.567 70.3014 514.461 69.6349C520.14 69.086 521.738 73.6309 518.822 77.3896C518.692 77.5571 518.544 77.6993 518.435 77.8801" fill="#F2DEB8"></path>
<path fill-rule="evenodd" clip-rule="evenodd" d="M519.235 72.2015C518.658 71.0106 517.181 70.0737 514.527 70.3302L514.46 69.635L514.527 70.3302C513.032 70.4747 511.64 71.3341 510.501 72.6457C509.364 73.9555 508.521 75.6715 508.125 77.4114C507.728 79.1578 507.796 80.8586 508.388 82.1697C508.963 83.4444 510.058 84.4114 511.89 84.7159C512.011 84.736 512.327 84.7133 512.814 84.5839C513.27 84.4624 513.79 84.2705 514.273 84.0374C514.761 83.8013 515.175 83.5407 515.443 83.2955C515.672 83.0856 515.7 82.9785 515.704 82.9672C515.654 82.5943 515.91 82.247 516.284 82.1859C516.664 82.1237 517.023 82.3819 517.086 82.7625C517.197 83.4417 516.754 83.9887 516.386 84.3259C515.979 84.6982 515.433 85.0283 514.88 85.2952C514.321 85.5652 513.718 85.7886 513.173 85.9337C512.658 86.0709 512.095 86.1659 511.661 86.0939C509.376 85.7139 507.885 84.4507 507.115 82.7445C506.361 81.0744 506.322 79.0434 506.763 77.1016C507.206 75.1535 508.148 73.2253 509.447 71.7297C510.744 70.2358 512.441 69.1285 514.393 68.9398L514.393 68.9398C517.418 68.6474 519.58 69.7084 520.492 71.5925C521.387 73.4383 520.94 75.7975 519.373 77.8178L518.822 77.3908L519.373 77.8177C519.373 77.8177 519.373 77.8178 519.373 77.8178C519.315 77.8919 519.248 77.9703 519.197 78.0293C519.181 78.0486 519.166 78.0658 519.154 78.0801C519.094 78.1508 519.058 78.198 519.033 78.2405C518.834 78.5709 518.405 78.6774 518.074 78.4784C517.744 78.2794 517.637 77.8502 517.836 77.5198C517.92 77.3814 518.012 77.2671 518.086 77.1797C518.115 77.1451 518.139 77.1167 518.161 77.0915C518.202 77.0434 518.234 77.0068 518.269 76.9615L518.269 76.9615C519.618 75.2231 519.831 73.4305 519.235 72.2015Z" fill="#414042"></path>
<path d="M516.649 72.2434C515.499 72.2387 514.35 72.2336 513.201 72.2284L516.649 72.2434Z" fill="white"></path>
<path fill-rule="evenodd" clip-rule="evenodd" d="M512.678 72.2261C512.679 71.9368 512.915 71.7033 513.204 71.7046C514.353 71.7098 515.502 71.7149 516.651 71.7196C516.94 71.7208 517.174 71.9562 517.173 72.2455C517.172 72.5348 516.936 72.7684 516.647 72.7672C515.498 72.7625 514.348 72.7574 513.199 72.7522C512.91 72.7509 512.676 72.5153 512.678 72.2261Z" fill="#414042"></path>
<path d="M517.192 75.8421C516.376 75.837 515.56 75.8357 514.744 75.8302L517.192 75.8421Z" fill="white"></path>
<path fill-rule="evenodd" clip-rule="evenodd" d="M514.223 75.8266C514.225 75.5373 514.461 75.3043 514.75 75.3063C515.181 75.3092 515.605 75.3109 516.031 75.3126C516.417 75.3142 516.804 75.3157 517.197 75.3182C517.486 75.32 517.719 75.556 517.718 75.8453C517.716 76.1346 517.48 76.3676 517.191 76.3658C516.808 76.3634 516.42 76.3619 516.03 76.3603C515.599 76.3585 515.168 76.3568 514.743 76.3539C514.454 76.352 514.221 76.1159 514.223 75.8266Z" fill="#414042"></path>
<path d="M470.513 36.324C470.513 36.324 454.345 78.6078 458.668 85.2241C462.991 91.8404 481.796 101.415 493.323 95.0754C504.851 88.7355 506.846 84.5188 507.071 79.2906C507.274 74.5767 510.782 69.0625 515.969 69.5916C521.157 70.1207 522.237 76.7386 522.237 76.7386C522.237 76.7386 531.459 72.7041 533.188 64.0588C534.917 55.4134 536.646 34.1955 513.592 38.3205C490.538 42.4454 470.513 36.324 470.513 36.324Z" fill="#414042"></path>
<path d="M487.909 119.547L484.916 114.605C483.189 111.755 483.578 108.103 485.866 105.681L492.512 109.049L487.909 119.547Z" fill="#414042"></path>
<path d="M240.507 502.973L257.469 486.852L271.522 507.456L254.847 524.174L237.193 520.785L233.734 509.834L240.507 502.973Z" fill="#F2DEB8"></path>
<path fill-rule="evenodd" clip-rule="evenodd" d="M239.252 531.238C239.679 529.755 241.227 528.899 242.71 529.326C247.434 530.685 249.422 533.725 250.836 536.38C251.026 536.738 251.203 537.078 251.372 537.401C252.48 539.528 253.217 540.941 254.895 541.995C256.201 542.815 256.595 544.54 255.775 545.846C254.954 547.153 253.23 547.547 251.923 546.726C248.859 544.802 247.4 541.934 246.339 539.849C246.187 539.55 246.043 539.267 245.903 539.005C244.763 536.863 243.734 535.434 241.164 534.695C239.682 534.268 238.826 532.72 239.252 531.238Z" fill="#FF7373"></path>
<path fill-rule="evenodd" clip-rule="evenodd" d="M234.71 548.231C235.965 547.334 237.71 547.624 238.607 548.879C240.317 551.27 242.061 552.806 244.027 554.233C244.852 554.832 245.695 555.398 246.618 556.017C246.83 556.159 247.047 556.304 247.268 556.454C248.433 557.238 249.692 558.102 251.024 559.126C252.247 560.067 252.476 561.821 251.535 563.044C250.594 564.267 248.84 564.496 247.617 563.555C246.428 562.64 245.286 561.855 244.147 561.088C243.946 560.952 243.742 560.816 243.538 560.679C242.61 560.057 241.661 559.421 240.744 558.755C238.443 557.084 236.216 555.141 234.062 552.129C233.165 550.874 233.455 549.129 234.71 548.231Z" fill="#FF7373"></path>
<path d="M222.447 589.816C219.044 589.266 217.442 587.685 215.253 586.32C233.152 572.678 233.391 531.159 224.19 515.323C220.464 508.91 219.567 510.614 213.223 507.822C214.949 507.257 215.597 506.716 217.529 506.196C224.302 504.374 231.643 502.053 238.886 502.557C239.016 502.566 239.233 502.653 239.335 502.631C240.681 502.341 242.253 503.427 242.671 504.241C243.09 505.056 242.489 503.72 242.802 504.535C243.115 505.349 243.591 508.348 243.575 509.638C243.545 511.965 242.824 515.269 245.524 518.738C248.705 522.825 250.838 520.801 255.147 523.839C255.72 531.848 244.105 553.506 242.738 563.86C241.159 575.817 235.336 591.902 222.447 589.816Z" fill="#2249B3"></path>
<path d="M215.363 586.303C215.308 586.345 215.256 586.325 215.252 586.322C214.857 586.122 211.549 584.25 210.496 583.117C207.317 579.692 202.691 573.418 205.504 565.104C209.789 552.443 212.932 539.487 208.895 526.486C206.126 517.569 206.069 509.325 213.794 507.753C217.84 506.93 221.482 508.32 224.791 515.322C232.637 531.925 233.105 572.593 215.363 586.303Z" fill="#F0F1F1"></path>
<path d="M215.993 561.358C215.973 561.374 216.001 561.391 216 561.39C215.855 561.317 214.597 560.607 214.212 560.192C213.049 558.939 211.356 556.643 212.385 553.6C213.953 548.966 215.104 544.225 213.626 539.467C212.613 536.203 212.592 533.186 215.419 532.611C216.9 532.31 218.233 532.818 219.444 535.381C222.315 541.457 222.487 556.341 215.993 561.358Z" fill="#B0C1E1"></path>
<path d="M143.508 463.546L162.886 450.427L173.366 473.058L154.334 486.719L137.315 480.572L135.701 469.202L143.508 463.546Z" fill="#F2DEB8"></path>
<path fill-rule="evenodd" clip-rule="evenodd" d="M137.626 491.227C138.291 489.834 139.958 489.244 141.351 489.908C145.788 492.025 147.25 495.35 148.209 498.2C148.338 498.585 148.457 498.949 148.57 499.296C149.315 501.576 149.809 503.091 151.291 504.405C152.446 505.429 152.551 507.195 151.527 508.349C150.504 509.503 148.738 509.609 147.584 508.585C144.877 506.184 143.908 503.115 143.203 500.884C143.102 500.564 143.007 500.262 142.912 499.981C142.139 497.681 141.358 496.103 138.945 494.951C137.552 494.287 136.962 492.62 137.626 491.227Z" fill="#FF7373"></path>
<path fill-rule="evenodd" clip-rule="evenodd" d="M130.352 507.247C131.737 506.568 133.411 507.14 134.09 508.525C135.384 511.165 136.853 512.966 138.557 514.697C139.273 515.423 140.011 516.119 140.82 516.881C141.006 517.056 141.196 517.235 141.39 517.419C142.41 518.383 143.51 519.442 144.656 520.671C145.708 521.8 145.646 523.568 144.517 524.62C143.389 525.672 141.621 525.61 140.569 524.481C139.546 523.384 138.549 522.422 137.551 521.478C137.374 521.311 137.196 521.143 137.017 520.975C136.203 520.208 135.372 519.425 134.577 518.618C132.581 516.592 130.703 514.31 129.073 510.985C128.394 509.6 128.966 507.926 130.352 507.247Z" fill="#FF7373"></path>
<path d="M112.35 545.818C109.083 544.717 107.944 543.402 105.182 541.524C125.077 531.004 131.855 490.187 125.378 473.056C122.756 466.119 121.591 467.652 115.791 463.856C117.587 463.583 118.314 463.155 120.306 462.96C127.286 462.274 134.908 461.189 141.97 462.875C142.097 462.905 142.296 463.027 142.401 463.022C143.777 462.957 145.149 464.285 145.428 465.158C145.707 466.03 145.334 464.613 145.509 465.468C145.684 466.323 145.661 469.36 145.433 470.63C145.022 472.92 143.768 476.061 145.862 479.926C148.329 484.479 150.766 482.833 154.518 486.537C153.769 494.532 138.757 513.99 135.709 523.979C132.189 535.515 124.722 549.991 112.35 545.818Z" fill="#2249B3"></path>
<path d="M105.182 541.526C105.121 541.559 105.189 541.618 105.185 541.616C104.829 541.353 101.751 538.761 100.905 537.585C98.1747 533.792 94.7966 526.737 98.9367 518.997C105.241 507.211 110.468 494.946 108.619 481.46C107.351 472.209 108.648 464.067 116.526 463.784C120.652 463.637 124.017 465.605 126.132 473.055C131.147 490.721 124.934 530.914 105.182 541.526Z" fill="#F0F1F1"></path>
<path d="M109.583 517.817C109.56 517.83 109.586 517.853 109.584 517.852C109.448 517.751 108.266 516.755 107.941 516.304C106.892 514.848 105.595 512.138 107.185 509.166C109.606 504.64 111.613 499.931 110.903 494.752C110.416 491.2 110.914 488.073 113.939 487.965C115.524 487.908 116.816 488.664 117.628 491.525C119.554 498.308 117.168 513.743 109.583 517.817Z" fill="#B0C1E1"></path>
<path d="M407.639 93.3827C407.639 93.3827 429.052 97.5348 447.111 101.377C465.17 105.22 524.776 134.865 534.102 160.513C538.096 171.495 506.242 182.125 505.82 182.75C505.398 183.375 388.299 149.407 388.299 149.407L407.639 93.3827Z" fill="#2249B3"></path>
<path d="M635.979 226.559C635.979 226.559 675.258 214.591 673.273 223.485C671.992 229.221 663.883 234.244 663.883 234.244C663.883 234.244 701.353 231.722 701.284 239.466C701.215 247.211 685.581 267.758 675.649 267.17C665.912 266.594 633.76 263.82 631.107 255.578C628.455 247.336 635.979 226.559 635.979 226.559Z" fill="#F2DEB8"></path>
<path fill-rule="evenodd" clip-rule="evenodd" d="M270.088 364.821L326.795 268.373L359.307 287.488L298.518 390.879L166.582 484.766L144.715 454.038L270.088 364.821Z" fill="#FF7373"></path>
<path fill-rule="evenodd" clip-rule="evenodd" d="M330.918 252.016L382.063 274.448L420.886 295.581L402.854 328.706L365.443 308.341L315.77 286.555L330.918 252.016Z" fill="#FF7373"></path>
<path fill-rule="evenodd" clip-rule="evenodd" d="M412.795 305.68L364.855 416.793L271.138 516.416L243.668 490.574L332.848 395.773L378.166 290.739L412.795 305.68Z" fill="#FF7373"></path>
<path fill-rule="evenodd" clip-rule="evenodd" d="M396.368 144.419C396.174 144.421 395.96 144.424 395.728 144.426C394.433 144.441 392.575 144.465 390.338 144.497C385.856 144.562 379.883 144.664 373.865 144.81C367.802 144.957 361.884 145.144 357.441 145.374C357.198 145.387 356.963 145.399 356.736 145.412L296.704 188.151L267.539 147.186L333.014 100.572L333.191 100.45C336.695 98.045 340.031 97.1 340.797 96.8829C340.819 96.8767 340.839 96.8711 340.856 96.8661C342.138 96.5007 343.244 96.2851 343.917 96.1649C345.305 95.9174 346.656 95.7626 347.67 95.6608C349.791 95.4477 352.315 95.2855 354.842 95.1548C359.988 94.8885 366.457 94.6879 372.647 94.5378C378.884 94.3867 385.031 94.2824 389.607 94.2159C391.899 94.1826 393.804 94.1587 395.139 94.143C395.659 94.137 396.092 94.1321 396.429 94.1285C403.753 93.6604 409.695 95.1134 415.409 97.6505L416.255 98.0262L526.205 156.881C531.985 159.975 537.071 164.219 541.149 169.353L541.569 169.882L569.226 208.826L644.17 217.269L638.541 267.24L541.249 256.279L501.941 200.931L396.368 144.419Z" fill="#2249B3"></path>
<path d="M499.742 201.778C486.062 240.77 442.284 300.486 434.925 307.53C429.371 312.842 401.861 299.418 375.224 283.917C363.516 277.1 351.973 269.876 342.537 263.676C333.808 257.927 326.901 253.051 323.334 250.176C307.201 237.144 401.455 124.831 401.455 124.831L435.03 140.226L466.016 154.433L490.216 165.539C490.216 165.539 505.115 186.488 499.742 201.778Z" fill="#2249B3"></path>
<path d="M355.64 266.147L363.324 270.475C383.977 282.107 410.149 274.794 421.782 254.142L459.359 187.426C470.991 166.773 463.679 140.6 443.026 128.968L435.342 124.64C425.382 119.03 412.76 122.556 407.15 132.516L347.763 237.955C342.153 247.915 345.68 260.537 355.64 266.147Z" fill="#414042"></path>
<path opacity="0.46" d="M452.992 148.462C461.043 152.153 464.349 162.033 459.829 169.65C459.8 169.7 459.77 169.749 459.741 169.799L407.008 258.378C399.679 270.689 388.242 279.432 375.224 283.917C363.516 277.1 351.973 269.876 342.537 263.676C333.808 257.927 326.901 253.051 323.334 250.176C307.201 237.144 401.455 124.831 401.455 124.831L435.03 140.226L452.992 148.462Z" fill="#414042"></path>
<path d="M447.295 154.589L391.041 261.741C385.729 271.869 373.223 275.766 363.094 270.454L355.299 266.346C340.626 258.64 332.259 243.636 332.319 228.135C332.349 221.484 333.929 214.712 337.24 208.391L347.142 189.534L372.831 140.594C381.018 125.003 398.024 116.35 414.819 117.478C419.68 117.794 424.541 118.938 429.161 120.97C430.049 121.36 430.922 121.782 431.779 122.233L439.545 126.553C440.343 126.975 441.11 127.44 441.817 127.967C444.707 130.014 446.844 132.768 448.183 135.853C450.696 141.587 450.471 148.54 447.295 154.589Z" fill="#FF7373"></path>
<path d="M499.713 126.415C499.638 126.565 498.825 125.783 497.23 124.985C491.767 122.246 477.019 117.37 449.448 135.038C449.027 135.294 448.606 135.565 448.184 135.851C446.845 132.765 444.708 130.011 441.818 127.964C442.736 127.227 443.7 126.475 444.723 125.753C454.415 118.755 468.802 112.78 486.861 117.866C486.861 117.866 492.173 120.379 495.108 122.291C497.426 123.796 499.713 126.415 499.713 126.415Z" fill="#FF7373"></path>
<path d="M442.541 100.286C437.876 104.876 434.023 111.031 431.013 117.066C430.351 118.376 429.734 119.685 429.162 120.964C424.542 118.932 419.681 117.789 414.82 117.473C415.377 115.847 416.009 114.312 416.701 112.868C420.9 103.898 426.845 98.2549 428.229 96.9902C428.425 96.8249 428.651 96.7345 428.906 96.7647C429.268 96.8102 429.96 96.8999 431.269 97.1563C433.737 97.6075 440.088 99.0375 442.33 99.5335C442.677 99.6239 442.797 100.046 442.541 100.286Z" fill="#FF7373"></path>
<path d="M499.738 201.907C499.738 201.907 445.874 242.684 419.65 242.255L415.039 250.761C415.039 250.761 441.27 247.953 466.843 232.139C492.415 216.324 495.369 214.306 496.593 212.577C497.642 211.097 500.572 204.775 500.556 202.378C500.553 201.976 499.976 201.863 499.738 201.907Z" fill="#FF7373"></path>
<path d="M412.876 255.289L412.222 254.986C410.598 254.234 409.89 252.307 410.643 250.682L416.637 237.737C417.389 236.113 419.316 235.405 420.941 236.158L421.595 236.461C423.219 237.213 423.927 239.14 423.174 240.765L417.18 253.709C416.428 255.334 414.501 256.041 412.876 255.289Z" fill="#FF7373"></path>
<path d="M413.432 155.713L381.085 138.73C379.853 138.083 379.379 136.56 380.026 135.329C380.672 134.097 382.195 133.623 383.426 134.27L415.774 151.252C417.006 151.899 417.48 153.422 416.833 154.653C416.186 155.885 414.664 156.359 413.432 155.713Z" fill="#414042"></path>
<path d="M390.871 214.774L377.302 236.996C373.464 243.28 365.408 245.507 358.888 242.085L332.314 228.138C332.344 221.486 333.925 214.714 337.236 208.393L347.138 189.537C347.65 189.446 348.191 189.521 348.688 189.777L389.818 211.373C391.037 212.02 391.518 213.54 390.871 214.774Z" fill="#414042"></path>
<path d="M414.895 153.357C414.895 153.357 406.751 157.095 407.285 165.106C407.819 173.116 416.898 160.433 414.895 153.357Z" fill="#414042"></path>
<path fill-rule="evenodd" clip-rule="evenodd" d="M702.932 247.786L679.217 246.593L679.287 245.198L703.002 246.391L702.932 247.786Z" fill="#2249B3"></path>
<path fill-rule="evenodd" clip-rule="evenodd" d="M697.372 254.899L671.58 253.602L671.65 252.207L697.442 253.504L697.372 254.899Z" fill="#2249B3"></path>
<path fill-rule="evenodd" clip-rule="evenodd" d="M689.723 261.916L668.545 260.62L668.63 259.225L689.809 260.522L689.723 261.916Z" fill="#2249B3"></path>
<path fill-rule="evenodd" clip-rule="evenodd" d="M285.117 507L264.656 487.445L265.621 486.435L286.082 505.99L285.117 507Z" fill="#2249B3"></path>
<path fill-rule="evenodd" clip-rule="evenodd" d="M181.217 478.892L166.463 454.739L167.655 454.011L182.409 478.164L181.217 478.892Z" fill="#2249B3"></path>
<path opacity="0.46" d="M429.162 116.193C429.794 116.463 430.411 116.764 431.013 117.066C430.351 118.375 429.734 119.684 429.162 120.963C424.542 118.931 419.681 117.788 414.82 117.472C415.377 115.847 416.009 114.311 416.701 112.867C420.93 113.333 425.144 114.417 429.162 116.193Z" fill="#414042"></path>
<path opacity="0.46" d="M449.448 135.038C449.027 135.294 448.606 135.565 448.184 135.851C446.845 132.765 444.708 130.011 441.818 127.964C442.736 127.227 443.7 126.475 444.723 125.753C446.183 127.332 447.341 129.139 448.184 131.08C448.741 132.344 449.162 133.668 449.448 135.038Z" fill="#414042"></path>
<path d="M238.566 505.653C238.566 505.653 241.507 496.927 243.02 497.768C244.534 498.609 247.876 500.735 246.31 501.93C244.743 503.126 240.438 506.684 240.438 506.684L238.566 505.653Z" fill="#2249B3"></path>
<path d="M140.961 466.222C140.961 466.222 145.108 458.002 146.487 459.049C147.867 460.096 150.874 462.673 149.153 463.635C147.433 464.597 142.667 467.508 142.667 467.508L140.961 466.222Z" fill="#2249B3"></path>
</svg>
